<svg width="568" height="362" viewBox="0 0 568 362" fill="none" xmlns="http://www.w3.org/2000/svg">
<g clip-path="url(#clip0_403_2)">
<rect width="567.461" height="360.321" rx="26.1102" transform="matrix(1 0 0 -1 0.00720215 361.066)" fill="url(#paint0_linear_403_2)"/>
<rect opacity="0.5" x="39.1725" y="39.9107" width="75.7196" height="60.9238" rx="6.96272" fill="white"/>
<path d="M54.4847 47.733C54.4847 47.733 64.6928 43.5198 64.6928 53.7509C64.6928 63.982 53.3505 60.3706 53.3505 60.3706M53.3505 60.3706H39.1726M53.3505 60.3706V75.4154M53.3505 75.4154H39.1726M53.3505 75.4154C53.3505 75.4154 68.0955 75.4154 66.9612 85.044C65.827 94.6727 57.3203 92.8673 57.3203 92.8673" stroke="white" stroke-width="3.48136"/>
<path d="M99.0774 88.6003C99.0774 88.6003 88.5695 92.9712 88.3929 82.8182C88.2164 72.6652 100.035 76.038 100.035 76.038M100.035 76.038L114.73 75.7742M100.035 76.038L99.7754 61.108M99.7754 61.108L114.471 60.8443M99.7754 61.108C99.7754 61.108 84.4922 61.3823 85.5017 51.806C86.5112 42.2297 95.3596 43.8631 95.3596 43.8631" stroke="white" stroke-width="3.48136"/>
<path opacity="0.7" d="M329.026 -23.6238C322.526 40.3634 348.301 174.539 502.85 201.456M502.85 201.456C503.509 201.571 504.171 201.683 504.834 201.794C661.147 227.904 568.642 212.448 502.85 201.456Z" stroke="#D4DDEB" stroke-width="2.61102"/>
<path opacity="0.6" d="M248.833 -1.98083C275.329 56.6243 364.971 159.735 512.151 105.44M512.151 105.44C512.779 105.209 513.408 104.974 514.037 104.737C662.338 48.8595 574.572 81.9235 512.151 105.44Z" stroke="#D4DDEB" stroke-width="2.61102"/>
</g>
<defs>
<linearGradient id="paint0_linear_403_2" x1="204.993" y1="360.066" x2="452.993" y2="0.0663088" gradientUnits="userSpaceOnUse">
<stop offset="0.00397914" stop-color="#FFE998" stop-opacity="0.94"/>
<stop offset="1" stop-color="#57370D"/>
</linearGradient>
<clipPath id="clip0_403_2">
<rect width="567.461" height="360.321" rx="26.1102" transform="matrix(1 0 0 -1 0.00720215 361.066)" fill="white"/>
</clipPath>
</defs>
</svg>
