<svg width="175" height="120" viewBox="0 0 175 120" fill="none" xmlns="http://www.w3.org/2000/svg">
<rect width="175" height="120" rx="15" fill="url(#paint0_linear_197_3)"/>
<g clip-path="url(#clip0_197_3)">
<path opacity="0.18" d="M115.649 49.8724C109.711 54.805 104.926 61.0959 98.611 65.5587C92.7698 69.6706 85.719 72.1355 80.6929 77.2011C76.4003 81.5256 73.9947 87.3643 73.9995 93.4473C74.0043 99.5302 76.419 105.365 80.7184 109.683C86.7299 115.719 95.618 117.994 104.14 118.442C112.661 118.889 121.206 117.777 129.728 118.232C137.792 118.665 145.811 120.496 153.865 119.891C161.918 119.285 170.445 115.501 173.625 108.107C177.147 99.9225 173.112 90.714 170.329 82.2553C168.228 75.8594 166.842 69.2521 166.194 62.5533C165.229 52.5326 163.451 38.6178 150.798 38.0631C138.229 37.4943 125.284 41.8552 115.649 49.8724Z" fill="#68E1FD"/>
<path d="M149.531 105.568C150.054 105.834 150.13 106.598 149.835 107.099C149.54 107.6 148.983 107.9 148.464 108.146C147.213 108.724 145.9 109.158 144.551 109.439C143.94 109.57 143.131 109.915 143.284 110.52C143.395 111.004 144.022 111.12 144.519 111.129C151.902 111.242 159.203 109.267 166.583 109.431C167.072 109.431 167.614 109.485 167.949 109.841C168.372 110.291 168.259 111.016 168.02 111.584C166.703 114.743 162.909 115.974 159.518 116.52C151.797 117.768 143.92 117.411 136.1 117.324C120.524 117.154 104.906 118.068 89.3879 116.715C89.0592 116.716 88.7368 116.626 88.4565 116.455C88.1799 116.21 88.0098 115.868 87.9823 115.501C87.7182 113.619 89.2289 111.85 91.0065 111.163C92.7841 110.475 94.7576 110.597 96.6602 110.735C104.722 111.301 112.818 111.783 120.877 111.177C126.155 110.825 131.375 109.876 136.438 108.347C138.763 107.625 141.117 106.205 143.494 105.772C144.227 105.639 144.971 105.729 145.709 105.693C146.783 105.639 148.532 105.061 149.531 105.568Z" fill="url(#paint1_linear_197_3)"/>
<path d="M74 92.0469C74.0284 92.9949 74.4969 93.8665 74.9655 94.6929C77.098 98.4425 79.4833 102.133 82.7773 104.917C87.6274 109.007 93.9796 110.767 100.113 112.42C99.5624 112.154 98.9036 109.338 98.6594 108.718C98.1851 107.504 97.7422 106.279 97.285 105.062C96.5665 103.135 95.0502 101.584 93.5935 100.166C90.2551 96.9669 86.2056 94.599 81.7749 93.2553C79.2533 92.4898 76.6358 92.083 74 92.0469Z" fill="#68E1FD"/>
<path d="M74 92.0469C74.0284 92.9949 74.4969 93.8665 74.9655 94.6929C77.098 98.4425 79.4833 102.133 82.7773 104.917C87.6274 109.007 93.9796 110.767 100.113 112.42C99.5624 112.154 98.9036 109.338 98.6594 108.718C98.1851 107.504 97.7422 106.279 97.285 105.062C96.5665 103.135 95.0502 101.584 93.5935 100.166C90.2551 96.9669 86.2056 94.599 81.7749 93.2553C79.2533 92.4898 76.6358 92.083 74 92.0469Z" fill="url(#paint2_linear_197_3)"/>
<path d="M97.9977 94.1394C97.4979 90.6529 96.9839 87.1184 95.5755 83.8866C94.167 80.6548 91.7278 77.7258 88.4139 76.4863L88.13 91.4708C88.0732 94.3545 88.0249 97.2948 88.8541 100.06C90.3136 104.904 95.3682 110.59 100.241 112.192C100.962 109.863 99.7497 106.339 99.3891 103.922L97.9977 94.1394Z" fill="#68E1FD"/>
<path d="M158.411 89.6406C158.385 90.5858 157.914 91.4603 157.446 92.2838C155.319 96.0334 152.93 99.7265 149.631 102.508C144.781 106.598 138.431 108.361 132.309 110.01C132.857 109.744 133.516 106.929 133.76 106.309C134.234 105.095 134.677 103.872 135.135 102.653C135.853 100.725 137.369 99.1775 138.843 97.7597C142.175 94.5608 146.219 92.1927 150.645 90.849C153.163 90.0811 155.778 89.6743 158.411 89.6406Z" fill="#68E1FD"/>
<path d="M158.411 89.6406C158.385 90.5858 157.914 91.4603 157.446 92.2838C155.319 96.0334 152.93 99.7265 149.631 102.508C144.781 106.598 138.431 108.361 132.309 110.01C132.857 109.744 133.516 106.929 133.76 106.309C134.234 105.095 134.677 103.872 135.135 102.653C135.853 100.725 137.369 99.1775 138.843 97.7597C142.175 94.5608 146.219 92.1927 150.645 90.849C153.163 90.0811 155.778 89.6743 158.411 89.6406Z" fill="url(#paint3_linear_197_3)"/>
<path d="M134.413 91.738C134.913 88.2515 135.427 84.7141 136.835 81.4851C138.244 78.2562 140.683 75.3102 143.997 74.082C144.094 79.0778 144.188 84.0717 144.281 89.0637C144.335 91.9502 144.386 94.8905 143.554 97.6553C142.097 102.5 137.04 108.185 132.17 109.784C131.446 107.458 132.658 103.932 133.005 101.515L134.413 91.738Z" fill="#68E1FD"/>
<path d="M129.367 42.9357L103.081 45.5138C100.366 45.7798 98.1624 48.0607 98.1624 50.5935V109.329C98.1624 111.876 100.366 113.709 103.081 113.443L129.367 110.865C132.085 110.599 134.288 108.318 134.288 105.788V47.0532C134.288 44.512 132.085 42.6697 129.367 42.9357ZM131.778 105.913C131.778 107.478 130.421 108.879 128.748 109.043L103.206 111.547C101.53 111.711 100.173 110.577 100.173 109V50.4209C100.173 48.8559 101.53 47.4551 103.206 47.291L107.033 46.9146V47.2627C107.033 48.2644 107.902 48.9917 108.973 48.887L123.1 47.5202C123.612 47.477 124.091 47.2501 124.448 46.8817C124.806 46.5133 125.017 46.0282 125.042 45.5166V45.1827L128.734 44.8204C130.406 44.6563 131.764 45.7911 131.764 47.3674L131.778 105.913Z" fill="#68E1FD"/>
<path d="M130.605 44.0192L104.316 46.5973C101.601 46.8633 99.3977 49.1442 99.3977 51.6912V110.412C99.3977 112.959 101.601 114.793 104.316 114.527L130.605 111.952C133.32 111.686 135.523 109.405 135.523 106.872V48.1368C135.523 45.5983 133.323 43.7674 130.605 44.0192ZM133.016 106.996C133.016 108.561 131.659 109.962 129.983 110.126L104.427 112.631C102.751 112.795 101.394 111.66 101.394 110.084V51.5044C101.394 49.9395 102.751 48.5358 104.427 48.3717L108.269 48.0123V48.3575C108.269 49.3593 109.138 50.0866 110.208 49.9819L124.338 48.5981C124.849 48.5532 125.326 48.3261 125.683 47.9585C126.039 47.591 126.25 47.1076 126.278 46.5973V46.2549L129.983 45.8898C131.659 45.7257 133.016 46.8633 133.016 48.4368V106.996Z" fill="white"/>
<path d="M133.016 48.4292V107.009C133.016 108.574 131.659 109.974 129.983 110.139L104.427 112.643C102.751 112.807 101.394 111.672 101.394 110.096V51.5166C101.394 49.9517 102.751 48.5481 104.427 48.3839L108.269 48.0132V48.3584C108.269 49.3602 109.138 50.0875 110.208 49.9828L124.338 48.599C124.849 48.5541 125.326 48.327 125.683 47.9594C126.039 47.5919 126.25 47.1085 126.278 46.5982V46.2558L129.983 45.8907C131.659 45.7266 133.016 46.8642 133.016 48.4292Z" stroke="url(#paint4_linear_197_3)" stroke-width="0.63" stroke-miterlimit="10"/>
<path d="M133.016 48.4292V107.009C133.016 108.574 131.659 109.974 129.983 110.139L104.427 112.643C102.751 112.807 101.394 111.672 101.394 110.096V51.5166C101.394 49.9517 102.751 48.5481 104.427 48.3839L108.269 48.0132V48.3584C108.269 49.3602 109.138 50.0875 110.208 49.9828L124.338 48.599C124.849 48.5541 125.326 48.327 125.683 47.9594C126.039 47.5919 126.25 47.1085 126.278 46.5982V46.2558L129.983 45.8907C131.659 45.7266 133.016 46.8642 133.016 48.4292Z" fill="#68E1FD"/>
<path d="M124.293 104.012L111.458 105.237C111.277 105.252 111.095 105.229 110.923 105.17C110.751 105.111 110.594 105.018 110.46 104.895C110.327 104.773 110.221 104.624 110.148 104.458C110.075 104.292 110.038 104.113 110.038 103.932V100.732C110.038 100.402 110.161 100.085 110.383 99.8411C110.605 99.5972 110.91 99.4446 111.239 99.4129L124.068 98.1876C124.251 98.1702 124.435 98.191 124.608 98.2487C124.782 98.3064 124.942 98.3997 125.077 98.5226C125.212 98.6455 125.32 98.7952 125.394 98.9622C125.468 99.1292 125.506 99.3097 125.505 99.4922V102.693C125.505 103.024 125.38 103.342 125.155 103.586C124.931 103.83 124.623 103.982 124.293 104.012Z" fill="url(#paint5_linear_197_3)"/>
<path d="M119.198 47.8374L114.343 48.3128V47.911L119.198 47.4355V47.8374Z" fill="url(#paint6_linear_197_3)"/>
<path d="M120.722 47.8626C120.98 47.7119 121.081 47.4038 120.946 47.1744C120.812 46.9451 120.493 46.8812 120.235 47.0319C119.976 47.1826 119.875 47.4906 120.01 47.72C120.145 47.9494 120.463 48.0132 120.722 47.8626Z" fill="url(#paint7_linear_197_3)"/>
<path d="M107.766 92.7557L126.283 90.987C126.908 90.9308 127.488 90.6426 127.909 90.1797C128.33 89.7167 128.56 89.1128 128.555 88.4881V67.6684C128.552 67.2899 128.471 66.9161 128.316 66.5704C128.161 66.2247 127.937 65.9145 127.656 65.6593C127.376 65.404 127.046 65.2091 126.686 65.0869C126.327 64.9646 125.946 64.9176 125.568 64.9488L107.05 66.7175C106.426 66.7729 105.846 67.0605 105.425 67.5231C105.004 67.9856 104.773 68.5891 104.779 69.2135V90.0361C104.782 90.4146 104.863 90.7884 105.018 91.1341C105.172 91.4798 105.397 91.7899 105.677 92.0452C105.958 92.3005 106.288 92.4953 106.647 92.6176C107.007 92.7398 107.387 92.7868 107.766 92.7557Z" fill="#C9D9DF"/>
<path d="M108.859 93.0506L127.376 91.2819C128.001 91.2264 128.581 90.9388 129.002 90.4763C129.423 90.0138 129.653 89.4103 129.648 88.7859V67.9633C129.645 67.5848 129.564 67.211 129.409 66.8653C129.255 66.5196 129.03 66.2094 128.75 65.9542C128.469 65.6989 128.139 65.5041 127.78 65.3818C127.42 65.2596 127.039 65.2126 126.661 65.2437L108.144 67.0124C107.519 67.0685 106.939 67.3567 106.518 67.8197C106.097 68.2827 105.867 68.8865 105.872 69.5112V90.331C105.875 90.7095 105.956 91.0833 106.111 91.429C106.265 91.7747 106.49 92.0849 106.77 92.3401C107.051 92.5954 107.381 92.7902 107.74 92.9125C108.1 93.0347 108.481 93.0817 108.859 93.0506Z" fill="url(#paint8_linear_197_3)"/>
<path d="M109.572 70.8269L116.217 70.2949V76.9424L109.572 77.4745V70.8269ZM115.115 75.9208V71.5005L110.674 71.857V76.3029L115.115 75.9208Z" fill="#473F47"/>
<path d="M120.698 69.9285L127.337 69.3965V76.0496L120.698 76.593V69.9285ZM126.238 75.0394V70.5935L121.794 70.9501V75.3959L126.238 75.0394Z" fill="#473F47"/>
<path d="M116.217 88.07L109.572 88.602V81.9715L116.217 81.4395V88.07ZM110.668 87.4106L115.121 87.0654V82.6224L110.668 82.9789V87.4106Z" fill="#473F47"/>
<path d="M118.446 71.218L119.553 71.1303V73.3405L118.454 73.4282V74.5319L117.361 74.6196V70.2049L118.446 70.1172V71.218Z" fill="#473F47"/>
<path d="M127.34 79.3894L125.142 79.5648V78.4612L122.921 78.6366V77.5471L127.34 77.1934V79.3894Z" fill="#473F47"/>
<path d="M126.24 83.9512V85.0435L127.337 84.9558V87.166L125.147 87.3414V84.0474L126.24 83.9512Z" fill="#473F47"/>
<path d="M111.775 78.4395V79.5346L112.877 79.4469V80.5562L109.575 80.8223V78.6262L111.775 78.4395Z" fill="#473F47"/>
<path d="M118.454 77.8949L121.771 77.6289V79.8391L119.562 80.0174V78.8854L118.454 78.9731V77.8694V77.8949Z" fill="#473F47"/>
<path d="M120.698 81.0476L121.796 80.9599V79.8619L124 79.6836V81.8796L120.698 82.1428V81.0476Z" fill="#473F47"/>
<path d="M119.562 80.0176V82.2278L117.353 82.406V80.1959L119.573 80.0176H119.562Z" fill="#473F47"/>
<path d="M119.559 85.6071L120.155 85.5477L121.612 85.4316H121.777V87.6305L119.573 87.8088V85.7712C119.573 85.7175 119.573 85.6665 119.573 85.6128L119.559 85.6071Z" fill="#473F47"/>
<path d="M117.352 80.1974L115.14 80.3728V79.2748L116.234 79.1871V78.0749L117.35 77.9844V80.2059L117.352 80.1974Z" fill="#473F47"/>
<path d="M127.339 82.7234L126.252 82.8111V81.7103L125.15 81.798V80.7028L127.339 80.5273V82.7234Z" fill="#473F47"/>
<path d="M118.463 85.6873V84.5553L117.361 84.643V83.5563L119.559 83.3809V85.6024C119.389 85.6024 119.221 85.6024 119.054 85.625C118.886 85.6476 118.656 85.6646 118.457 85.6844L118.463 85.6873Z" fill="#473F47"/>
<path d="M118.466 76.7897V74.5682L119.553 74.4805V76.6991L118.46 76.7869L118.466 76.7897Z" fill="#473F47"/>
<path d="M118.46 85.6836V87.707V87.8881L117.367 87.9758V85.777L118.471 85.6864L118.46 85.6836Z" fill="#473F47"/>
<path d="M115.104 78.1738V79.2577L112.914 79.4331V78.3493L115.104 78.1738Z" fill="#473F47"/>
<path d="M122.921 84.1899V83.1032L125.113 82.9277V84.0059L122.921 84.1899Z" fill="#473F47"/>
<path d="M122.921 87.5281V85.3377L124 85.25V87.4404L122.921 87.5281Z" fill="#473F47"/>
<path d="M117.35 77.9842V76.8777L118.466 76.7871V77.8964L117.352 77.987L117.35 77.9842Z" fill="#473F47"/>
<path d="M120.695 84.3671V83.2861L121.774 83.2012V84.2794L120.695 84.3671Z" fill="#473F47"/>
<path d="M119.582 83.3433V82.2537L120.663 82.166V83.247L119.582 83.3433Z" fill="#473F47"/>
<path d="M122.887 85.3065L121.811 85.3942V84.3104L122.887 84.2227V85.3065Z" fill="#473F47"/>
<path d="M113.993 72.6992L111.798 72.8747V75.065L113.993 74.8896V72.6992Z" fill="#473F47"/>
<path d="M125.113 74.0046V71.8086L122.927 71.9841V74.1801L125.113 74.0046Z" fill="#473F47"/>
<path d="M111.792 86.1968L113.988 86.0213V83.8281L111.792 84.0036V86.1968Z" fill="#473F47"/>
<path d="M113.993 72.6992V74.8952L111.798 75.0707V72.8803L113.993 72.6992Z" fill="#473F47"/>
<path d="M125.113 74.0046L122.927 74.1801V71.9841L125.113 71.8086V74.0046Z" fill="#473F47"/>
<path d="M111.792 86.1968V84.0036L113.988 83.8281V86.0213L111.792 86.1968Z" fill="#473F47"/>
<path d="M124.934 103.586L112.105 104.808C111.923 104.826 111.739 104.806 111.565 104.748C111.392 104.691 111.232 104.598 111.096 104.475C110.961 104.353 110.853 104.203 110.779 104.036C110.705 103.869 110.667 103.689 110.668 103.507V100.306C110.668 99.9766 110.791 99.6591 111.013 99.4153C111.235 99.1714 111.54 99.0188 111.869 98.9872L124.699 97.7618C124.881 97.7444 125.065 97.7653 125.238 97.823C125.412 97.8807 125.572 97.9739 125.707 98.0968C125.842 98.2197 125.95 98.3694 126.024 98.5364C126.098 98.7034 126.136 98.8839 126.135 99.0664V102.267C126.136 102.596 126.013 102.914 125.791 103.158C125.568 103.402 125.263 103.554 124.934 103.586Z" fill="white"/>
<path d="M114.479 102.203L115.007 102.152C115.008 102.179 115.015 102.205 115.027 102.229C115.039 102.253 115.057 102.274 115.078 102.291C115.135 102.326 115.204 102.34 115.271 102.33C115.338 102.325 115.403 102.303 115.458 102.265C115.484 102.25 115.504 102.228 115.518 102.202C115.532 102.176 115.539 102.147 115.538 102.118C115.54 102.104 115.54 102.09 115.538 102.076C115.522 102.055 115.501 102.037 115.478 102.025C115.432 101.997 115.381 101.978 115.328 101.968L115.075 101.911C114.976 101.895 114.88 101.864 114.791 101.818C114.722 101.784 114.662 101.734 114.618 101.671C114.553 101.579 114.519 101.469 114.519 101.357C114.517 101.266 114.535 101.177 114.572 101.094C114.609 101.012 114.663 100.938 114.731 100.879C114.882 100.747 115.071 100.668 115.271 100.655C115.458 100.626 115.65 100.671 115.805 100.779C115.874 100.832 115.928 100.9 115.965 100.979C116.001 101.057 116.017 101.143 116.012 101.229L115.49 101.278C115.49 101.15 115.416 101.094 115.265 101.108C115.205 101.109 115.146 101.13 115.098 101.167C115.079 101.182 115.064 101.201 115.054 101.223C115.043 101.244 115.038 101.268 115.038 101.292C115.038 101.365 115.103 101.416 115.237 101.442L115.484 101.495C115.882 101.575 116.08 101.778 116.08 102.061C116.083 102.198 116.038 102.331 115.953 102.438C115.874 102.539 115.77 102.619 115.652 102.67C115.535 102.721 115.41 102.753 115.282 102.763C115.085 102.793 114.883 102.75 114.714 102.642C114.642 102.594 114.582 102.529 114.541 102.452C114.499 102.375 114.478 102.29 114.479 102.203Z" fill="#68E1FD"/>
<path d="M117.883 101.78L118.312 102.026C118.213 102.181 118.079 102.312 117.92 102.408C117.762 102.506 117.583 102.566 117.398 102.583C117.259 102.6 117.118 102.588 116.985 102.547C116.851 102.506 116.728 102.437 116.623 102.346C116.519 102.257 116.436 102.147 116.381 102.022C116.325 101.898 116.298 101.763 116.302 101.627C116.302 101.335 116.417 101.056 116.623 100.849C116.823 100.628 117.1 100.492 117.398 100.469C117.577 100.449 117.758 100.476 117.923 100.546C118.08 100.613 118.215 100.72 118.315 100.857L117.881 101.185C117.831 101.11 117.759 101.051 117.676 101.016C117.587 100.975 117.489 100.959 117.392 100.97C117.237 100.983 117.093 101.055 116.989 101.171C116.883 101.28 116.823 101.427 116.824 101.579C116.822 101.65 116.835 101.72 116.863 101.786C116.892 101.851 116.935 101.909 116.989 101.955C117.043 102.004 117.107 102.04 117.177 102.061C117.247 102.083 117.32 102.089 117.392 102.08C117.493 102.072 117.591 102.04 117.676 101.986C117.76 101.934 117.831 101.863 117.883 101.78Z" fill="#68E1FD"/>
<path d="M119.954 102.309L119.772 101.853L119.096 101.916L118.914 102.405L118.346 102.456L119.142 100.322L119.709 100.271L120.499 102.252L119.954 102.309ZM119.428 100.775L119.235 101.471L119.638 101.435L119.428 100.775Z" fill="#68E1FD"/>
<path d="M121.828 100.083L122.348 100.035V102.098L121.893 102.138L121.234 101.074V102.206L120.712 102.254V100.191L121.183 100.148L121.828 101.198V100.083Z" fill="#68E1FD"/>
<path d="M142.02 71.3614L128.092 64.9375L105.29 67.6854L105.869 91.9322L107.766 92.7557L128.552 91.0945L129.645 88.7853L141.813 72.3123L142.02 71.3614Z" fill="url(#paint9_linear_197_3)"/>
<path d="M141.478 72.8484V70.8166C141.478 70.7493 141.496 70.6831 141.53 70.6249C141.564 70.5667 141.613 70.5186 141.671 70.4855L142.807 69.8544C142.926 69.7865 143.398 70.061 143.398 70.1968L143.077 73.6833L142.279 74.2974L141.481 73.8304L141.478 72.8484Z" fill="white"/>
<path d="M141.478 72.8484V70.8166C141.478 70.7493 141.496 70.6831 141.53 70.6249C141.564 70.5667 141.613 70.5186 141.671 70.4855L142.807 69.8544C142.926 69.7865 143.398 70.061 143.398 70.1968L143.077 73.6833L142.279 74.2974L141.481 73.8304L141.478 72.8484Z" fill="url(#paint10_linear_197_3)"/>
<path d="M141.813 73.0996V71.0649C141.813 70.998 141.831 70.9322 141.865 70.8745C141.899 70.8167 141.948 70.7691 142.006 70.7367L143.142 70.1028C143.17 70.0876 143.201 70.0798 143.232 70.0801C143.263 70.0804 143.294 70.0888 143.321 70.1045C143.348 70.1201 143.371 70.1425 143.387 70.1695C143.403 70.1965 143.411 70.2271 143.412 70.2584V73.9373L142.614 74.5486L141.816 74.0845L141.813 73.0996Z" fill="white"/>
<path d="M142.021 73.0157V71.363L143.313 70.5508V73.2845L143.029 74.2042L142.427 74.4023C142.427 74.4023 142.106 74.2665 142.106 74.224" fill="#68E1FD"/>
<path d="M160.081 88.0676L159.91 88.2969L160.524 79.592L160.646 77.8431L160.705 76.9941L161.026 77.6818C161.628 78.9468 162.878 81.5928 163.227 82.3172C163.627 83.1492 160.81 87.0659 160.081 88.0676Z" fill="white"/>
<path opacity="0.1" d="M160.081 88.0671C160.01 87.9002 159.983 87.7179 160.004 87.5379C160.079 87.1404 160.25 86.7672 160.504 86.4512C161.179 85.4607 162.026 84.4108 162.415 83.2619C162.926 81.7422 161.25 80.7998 160.524 79.583C160.337 79.2982 160.227 78.971 160.203 78.6321C160.19 78.4705 160.226 78.309 160.305 78.1672C160.383 78.0254 160.502 77.9097 160.646 77.8341C160.764 77.7611 160.892 77.7058 161.026 77.6699C161.628 78.9349 162.878 81.5809 163.227 82.3053C163.627 83.1487 160.81 87.0653 160.081 88.0671Z" fill="#020202"/>
<path d="M155.92 112.017C155.651 112.14 155.428 112.347 155.284 112.606C155.255 112.663 155.246 112.729 155.259 112.793C155.28 112.84 155.31 112.881 155.349 112.915C155.388 112.949 155.434 112.974 155.483 112.988C156.199 113.271 157.008 113.217 157.755 113.081C158.504 112.898 159.27 112.787 160.041 112.75C160.106 112.761 160.173 112.757 160.236 112.739C160.3 112.722 160.359 112.691 160.41 112.648C160.457 112.577 160.48 112.493 160.475 112.408C160.506 111.74 160.39 111.073 160.134 110.455C160.152 110.495 158.11 110.577 157.934 110.696C157.61 110.919 157.34 111.205 156.994 111.412C156.647 111.618 156.281 111.813 155.92 112.017Z" fill="#282328"/>
<path d="M158.635 97.4514C158.621 100.056 158.827 102.657 159.249 105.228C159.317 105.675 159.391 106.119 159.481 106.564C160.152 109.847 160.206 110.681 160.206 110.681H157.514C157.514 110.681 155.526 101.385 154.788 99.2682C154.229 97.6639 153.793 96.0197 153.484 94.3498C153.364 93.5585 153.462 92.7494 153.768 92.0095C153.872 91.7178 154.02 91.4438 154.208 91.1973C154.574 90.7947 155.032 90.486 155.543 90.2974C156.63 89.8074 157.806 89.5436 158.999 89.522C159.135 89.5105 159.271 89.54 159.391 89.6069C159.467 89.6693 159.527 89.7488 159.567 89.8389C159.916 90.5464 159.851 91.3784 159.743 92.1595C159.696 92.5931 159.6 93.0202 159.459 93.4329C159.3 93.8546 159.05 94.2366 158.905 94.6639C158.782 95.0753 158.709 95.5001 158.689 95.9289C158.672 96.4355 158.647 96.942 158.635 97.4514Z" fill="#282328"/>
<path d="M151.888 95.3969C151.945 95.7353 151.967 96.0785 151.953 96.4213C151.942 97.036 151.962 97.6509 152.013 98.2636C152.164 101.181 152.607 104.088 152.609 107.008C152.609 109.498 152.527 112.102 152.527 112.102C152.527 112.102 154.705 112.77 155.208 112.269L156.045 100.242C156.173 99.3333 156.369 98.4108 156.434 97.4967C156.491 96.7015 156.508 96.028 156.806 95.2639C157.141 94.4149 157.619 93.614 157.877 92.7311C158.044 92.1658 158.116 91.5767 158.09 90.9879C158.098 90.8073 158.048 90.6289 157.948 90.4785C157.849 90.3761 157.727 90.2977 157.593 90.2493C156.085 89.5814 154.521 88.9022 152.871 88.9164C152.738 88.9054 152.604 88.9339 152.487 88.9984C152.376 89.0901 152.296 89.2136 152.257 89.3522C151.65 90.9483 151.464 92.6727 151.715 94.3611C151.78 94.7262 151.837 95.0601 151.888 95.3969Z" fill="#473F47"/>
<path d="M143.756 74.8967C143.69 74.5146 143.699 74.1156 143.665 73.7279C143.663 73.5757 143.622 73.4266 143.545 73.2949C143.505 73.2306 143.443 73.1823 143.37 73.158C143.298 73.1338 143.219 73.1352 143.148 73.1619C142.972 73.2497 142.966 73.4902 142.972 73.6855C142.978 73.8807 142.926 74.1298 142.733 74.1666C142.661 74.1736 142.587 74.1588 142.523 74.1241C142.427 74.0727 142.344 73.9996 142.281 73.9107C142.218 73.8218 142.176 73.7195 142.16 73.6119C142.143 73.4845 142.16 73.3515 142.137 73.2242C142.063 72.8563 141.586 72.9186 141.365 73.111C141.234 73.2366 141.128 73.3854 141.052 73.5496C140.892 73.8277 140.774 74.1282 140.703 74.4411C140.467 75.7174 142.012 75.9919 142.665 76.8069C142.759 76.9334 142.864 77.0517 142.977 77.1606C143.088 77.2554 143.222 77.3194 143.366 77.3462C143.509 77.3731 143.658 77.3617 143.795 77.3134C143.932 77.2631 144.053 77.1773 144.146 77.0649C144.239 76.9525 144.3 76.8176 144.323 76.6739C144.4 76.1984 144.054 75.7711 143.883 75.3183C143.827 75.1821 143.785 75.0409 143.756 74.8967Z" fill="#FFBBAB"/>
<path d="M154.861 71.5798C154.888 71.6157 154.908 71.6559 154.921 71.6986C154.941 71.7853 154.941 71.8752 154.921 71.9618C154.806 72.4735 154.727 72.9927 154.685 73.5155C154.663 73.6618 154.691 73.8114 154.765 73.9399C154.882 74.0643 155.043 74.1392 155.214 74.1494C155.462 74.189 155.714 74.2061 155.966 74.2003C156.065 74.2003 156.188 74.2003 156.25 74.2824C156.271 74.3196 156.283 74.3613 156.284 74.4041C156.296 74.599 156.258 74.7937 156.173 74.97C156.122 75.0552 156.096 75.1536 156.1 75.253C156.119 75.4341 156.383 75.4172 156.52 75.4257C157.037 75.4511 157.556 75.454 158.073 75.4257C158.162 75.4295 158.251 75.411 158.331 75.3719C158.471 75.2898 158.502 75.1059 158.542 74.9502C158.718 74.2286 159.277 73.6683 159.578 72.9891C159.733 72.6272 159.815 72.2384 159.818 71.8449C159.821 71.4515 159.747 71.0613 159.598 70.6969C159.455 70.3496 159.251 70.0305 158.996 69.7545C158.763 69.497 158.314 69.4432 157.991 69.3753C157.423 69.2564 156.792 69.2225 156.287 69.5253C155.719 69.8648 155.458 70.561 154.887 70.8865C154.788 70.9431 154.666 70.9997 154.631 71.11C154.623 71.1661 154.628 71.2234 154.646 71.2771C154.664 71.3309 154.695 71.3794 154.737 71.4185C154.773 71.4751 154.822 71.5232 154.861 71.5798Z" fill="#FFBBAB"/>
<path d="M156.443 69.328C156.456 69.4157 156.483 69.5008 156.522 69.5799C156.704 69.9563 156.943 69.8629 157.269 69.911C157.667 69.9817 157.925 70.426 158.008 70.7883C158.079 71.2274 158.064 71.6761 157.965 72.1098C158.052 72.038 158.16 71.9953 158.273 71.9877C158.386 71.9801 158.499 72.008 158.595 72.0674C158.689 72.1325 158.762 72.2232 158.805 72.3286C158.849 72.4341 158.861 72.5497 158.84 72.6617C158.816 72.7742 158.762 72.8779 158.683 72.9614C158.603 73.0448 158.502 73.1047 158.391 73.1343C158.28 73.1626 158.15 73.1682 158.081 73.2588C158.044 73.3241 158.029 73.3992 158.036 73.4739C158.036 73.955 158.056 74.4785 158.363 74.852C158.788 74.8096 159.112 74.47 159.43 74.187C159.882 73.7852 160.399 73.4569 160.833 73.0352C161.294 72.6325 161.58 72.0675 161.631 71.459C161.645 70.4826 160.779 69.7299 160.461 68.8102C160.404 68.6031 160.329 68.4014 160.237 68.2074C160.152 68.0742 160.039 67.9602 159.907 67.8728C159.775 67.7854 159.627 67.7265 159.47 67.6998C159.314 67.6732 159.154 67.6794 159.001 67.7181C158.847 67.7567 158.703 67.827 158.578 67.9244C158.349 67.7743 158.081 67.6943 157.807 67.6943C157.533 67.6943 157.265 67.7743 157.036 67.9244C156.827 68.0895 156.662 68.3048 156.559 68.5502C156.455 68.7956 156.415 69.0632 156.443 69.328Z" fill="#FC682D"/>
<path d="M160.6 80.0643C160.483 80.9762 160.445 81.8966 160.487 82.815C160.512 83.7121 160.555 84.6035 160.592 85.5006C160.419 86.2732 160.226 87.0458 160.024 87.8098C159.896 88.434 159.685 89.0383 159.396 89.6068C159.251 89.8803 159.059 90.1264 158.828 90.3341C158.602 90.5326 158.344 90.6923 158.065 90.8067C157.409 91.0486 156.708 91.1452 156.011 91.0897C155.52 91.0704 155.032 90.9964 154.558 90.869C153.947 90.7172 153.381 90.4266 152.902 90.02C152.662 89.8059 152.452 89.5603 152.277 89.2899C151.86 88.6236 151.608 87.868 151.542 87.0854C151.399 85.8009 151.566 84.5009 152.027 83.2933C152.053 83.2225 152.081 83.1546 152.11 83.0839C152.306 82.5858 152.502 82.0877 152.703 81.5897C152.703 81.5897 152.703 81.5755 152.703 81.5699C152.735 81.4906 152.766 81.417 152.794 81.3406L152.811 81.2982L152.7 81.3435L152.584 81.3859C152.547 81.4007 152.509 81.413 152.47 81.4227C152.388 81.4538 152.3 81.4765 152.218 81.4991L151.934 81.5699C151.772 81.6038 151.607 81.6349 151.443 81.6548L151.218 81.6802C149.154 81.8613 146.902 81.0293 145.175 80.1096C144.612 79.8239 144.097 79.4525 143.648 79.0088C143.554 78.9097 143.466 78.8058 143.384 78.6975C143.177 78.4262 143.025 78.1178 142.935 77.7891C142.873 77.5901 142.873 77.3768 142.935 77.1778C142.939 77.1699 142.944 77.1623 142.949 77.1552C143.011 77.019 143.098 76.8953 143.205 76.7901C143.467 76.5036 143.745 76.2316 144.037 75.9751L144.128 75.8958C144.206 75.8274 144.298 75.7763 144.397 75.7459C144.495 75.724 144.597 75.7238 144.695 75.7453C144.793 75.7668 144.886 75.8095 144.965 75.8704C145.11 75.9714 145.245 76.0861 145.369 76.2128C146.157 76.9618 147.092 77.5405 148.115 77.9125C149.138 78.2846 150.228 78.442 151.315 78.3749C151.912 78.3498 152.498 78.2095 153.041 77.9617C153.518 77.7042 153.96 77.3886 154.359 77.0222C154.719 76.7284 155.062 76.4147 155.387 76.0826C155.472 75.9921 155.56 75.8987 155.637 75.7996C155.713 75.7006 155.762 75.6468 155.821 75.5704L155.895 75.4742C155.96 75.3761 156.045 75.293 156.145 75.2308C156.288 75.1653 156.445 75.1343 156.602 75.1403C157.218 75.1148 157.888 74.9988 158.496 75.0129H158.561C158.621 75.0152 158.679 75.0218 158.738 75.0327C158.948 75.0657 159.145 75.1569 159.305 75.2959C159.503 75.4853 159.684 75.6917 159.845 75.9128C160.223 76.3256 160.52 76.8056 160.72 77.3278C161.015 78.1937 160.737 79.1418 160.6 80.0643Z" fill="white"/>
<path d="M161.31 79.9713C161.308 80.9528 161.233 81.9327 161.086 82.9031C160.958 83.7776 160.802 84.6407 160.592 85.501C160.555 84.6039 160.512 83.7125 160.487 82.8154C160.445 81.8969 160.483 80.9766 160.6 80.0647C160.737 79.145 161.015 78.1941 160.728 77.3112C160.528 76.789 160.232 76.309 159.853 75.8962C159.692 75.6751 159.512 75.4687 159.314 75.2793C159.882 75.7066 160.331 76.5018 160.705 76.9773C161.344 77.8121 161.305 78.9752 161.31 79.9713Z" fill="white"/>
<path opacity="0.1" d="M161.31 79.9713C161.308 80.9528 161.233 81.9327 161.086 82.9031C160.958 83.7776 160.802 84.6407 160.592 85.501C160.555 84.6039 160.512 83.7125 160.487 82.8154C160.445 81.8969 160.483 80.9766 160.6 80.0647C160.737 79.145 161.015 78.1941 160.728 77.3112C160.528 76.789 160.232 76.309 159.853 75.8962C159.692 75.6751 159.512 75.4687 159.314 75.2793C159.882 75.7066 160.331 76.5018 160.705 76.9773C161.344 77.8121 161.305 78.9752 161.31 79.9713Z" fill="#020202"/>
<path opacity="0.1" d="M160.6 80.0643C160.483 80.9762 160.445 81.8966 160.487 82.815C160.512 83.7121 160.555 84.6035 160.592 85.5006C160.419 86.2732 160.226 87.0458 160.024 87.8098C159.896 88.434 159.685 89.0383 159.396 89.6068C159.251 89.8803 159.059 90.1264 158.828 90.3341C158.602 90.5326 158.344 90.6923 158.065 90.8067C157.409 91.0486 156.708 91.1452 156.011 91.0897C155.52 91.0704 155.032 90.9964 154.558 90.869C153.947 90.7172 153.381 90.4266 152.902 90.02C152.662 89.8059 152.452 89.5603 152.277 89.2899C151.86 88.6236 151.608 87.868 151.542 87.0854C151.399 85.8009 151.566 84.5009 152.027 83.2933C152.053 83.2225 152.081 83.1546 152.11 83.0839C152.334 82.5966 152.532 82.0978 152.703 81.5897C152.703 81.5897 152.703 81.5755 152.703 81.5699C152.726 81.485 152.746 81.4057 152.766 81.3237C152.745 81.3328 152.723 81.3395 152.7 81.3435L152.584 81.3859C152.547 81.4007 152.509 81.413 152.47 81.4227C152.388 81.4538 152.3 81.4765 152.218 81.4991L151.934 81.5699C151.772 81.6038 151.607 81.6349 151.443 81.6548L151.218 81.6802C149.125 81.8925 146.979 81.0774 145.175 80.1096C144.612 79.8239 144.097 79.4525 143.648 79.0088C143.554 78.9097 143.466 78.8058 143.384 78.6975C143.177 78.4262 143.025 78.1178 142.935 77.7891C142.873 77.5901 142.873 77.3768 142.935 77.1778C142.939 77.1699 142.944 77.1623 142.949 77.1552C143.011 77.019 143.098 76.8953 143.205 76.7901C143.467 76.5036 143.745 76.2316 144.037 75.9751L144.128 75.8958C144.206 75.8274 144.298 75.7763 144.397 75.7459C144.495 75.724 144.597 75.7238 144.695 75.7453C144.793 75.7668 144.886 75.8095 144.965 75.8704C145.11 75.9714 145.245 76.0861 145.369 76.2128C146.157 76.9618 147.092 77.5405 148.115 77.9125C149.138 78.2846 150.228 78.442 151.315 78.3749C151.912 78.3498 152.498 78.2095 153.041 77.9617C153.518 77.7042 153.96 77.3886 154.359 77.0222C154.719 76.7284 155.062 76.4147 155.387 76.0826C155.472 75.9921 155.56 75.8987 155.637 75.7996C155.713 75.7006 155.762 75.6468 155.821 75.5704L155.895 75.4742C155.96 75.3761 156.045 75.293 156.145 75.2308C156.288 75.1653 156.445 75.1343 156.602 75.1403C157.218 75.1148 157.888 74.9988 158.496 75.0129H158.561C158.621 75.0152 158.679 75.0218 158.738 75.0327C158.944 75.0784 159.138 75.1682 159.305 75.2959C159.503 75.4853 159.684 75.6917 159.845 75.9128C160.223 76.3256 160.52 76.8056 160.72 77.3278C161.015 78.1937 160.737 79.1418 160.6 80.0643Z" fill="#020202"/>
<path d="M150.9 113.599C150.629 113.721 150.406 113.928 150.264 114.188C150.234 114.245 150.225 114.311 150.238 114.375C150.259 114.421 150.29 114.463 150.328 114.496C150.367 114.53 150.413 114.554 150.463 114.567C151.178 114.85 151.988 114.799 152.749 114.663C153.499 114.48 154.265 114.369 155.037 114.332C155.102 114.342 155.168 114.339 155.232 114.321C155.295 114.303 155.353 114.272 155.404 114.23C155.451 114.159 155.474 114.075 155.469 113.99C155.5 113.322 155.384 112.655 155.128 112.037C155.145 112.077 153.103 112.156 152.93 112.278C152.604 112.501 152.334 112.787 151.988 112.994C151.641 113.2 151.261 113.384 150.9 113.599Z" fill="#282328"/>
<path d="M147.481 79.241C146.121 78.7571 144.735 78.2788 143.651 77.3053C143.525 77.216 143.439 77.0824 143.409 76.9318C143.419 76.8386 143.449 76.7488 143.499 76.6689C143.548 76.5891 143.614 76.5213 143.693 76.4705C143.887 76.2753 144.108 76.1086 144.349 75.9753C144.47 75.9084 144.603 75.8676 144.741 75.8554C144.878 75.8432 145.016 75.86 145.147 75.9045C145.329 75.9959 145.493 76.1196 145.63 76.2696C146.629 77.1653 147.857 77.7668 149.179 78.0071C150.466 78.2901 151.883 78.3071 153.118 77.8091C153.833 77.5261 155.39 75.6498 156.085 75.9243C156.781 76.1988 156.474 77.5827 156.136 78.0128C155.407 78.9382 153.558 79.3768 152.445 79.5862C150.789 79.913 149.076 79.7939 147.481 79.241Z" fill="white"/>
<path d="M158.311 76.1822C158.468 76.1087 158.607 76.0024 158.719 75.8706C158.831 75.7387 158.912 75.5844 158.959 75.4181C158.585 75.3415 158.202 75.3224 157.823 75.3615L156.735 75.4153L156.02 75.4521C155.574 75.4775 155.565 75.6728 155.736 75.9784C155.815 76.1228 156.02 76.2388 156.105 76.3944C156.19 76.5501 156.204 76.7171 156.307 76.8359C156.591 77.1755 156.67 76.9831 157.036 76.7623C157.403 76.5416 157.894 76.4086 158.311 76.1822Z" fill="white"/>
<path d="M140.677 50.1326L153.442 48.7969L144.315 52.3598L140.677 50.1326Z" fill="#68E1FD"/>
<path d="M153.442 48.7969L145.834 56.132L144.315 52.3598L153.442 48.7969Z" fill="#68E1FD"/>
<path d="M153.442 48.7969L145.834 56.132L144.315 52.3598L153.442 48.7969Z" fill="url(#paint11_linear_197_3)"/>
<path d="M142.81 56.3839L144.315 52.3598L153.442 48.7969L142.81 56.3839Z" fill="#68E1FD"/>
<path d="M153.442 48.7969L144.315 51.5815L140.677 50.1326L144.315 52.3598L153.442 48.7969Z" fill="url(#paint12_linear_197_3)"/>
</g>
<defs>
<linearGradient id="paint0_linear_197_3" x1="87.5" y1="0" x2="87.5" y2="120" gradientUnits="userSpaceOnUse">
<stop stop-color="#0298EC"/>
<stop offset="1" stop-color="#0A53B2"/>
</linearGradient>
<linearGradient id="paint1_linear_197_3" x1="138.866" y1="73.2559" x2="116.38" y2="156.311" gradientUnits="userSpaceOnUse">
<stop offset="0.01"/>
<stop offset="0.13" stop-opacity="0.69"/>
<stop offset="0.25" stop-opacity="0.32"/>
<stop offset="1" stop-opacity="0"/>
</linearGradient>
<linearGradient id="paint2_linear_197_3" x1="100.099" y1="91.1611" x2="62.1463" y2="123.604" gradientUnits="userSpaceOnUse">
<stop offset="0.01"/>
<stop offset="0.13" stop-opacity="0.69"/>
<stop offset="0.25" stop-opacity="0.32"/>
<stop offset="1" stop-opacity="0"/>
</linearGradient>
<linearGradient id="paint3_linear_197_3" x1="132.312" y1="88.7549" x2="170.265" y2="121.195" gradientUnits="userSpaceOnUse">
<stop offset="0.01"/>
<stop offset="0.13" stop-opacity="0.69"/>
<stop offset="0.25" stop-opacity="0.32"/>
<stop offset="1" stop-opacity="0"/>
</linearGradient>
<linearGradient id="paint4_linear_197_3" x1="91.6629" y1="62.6742" x2="139.306" y2="100.504" gradientUnits="userSpaceOnUse">
<stop stop-color="white"/>
<stop offset="1" stop-color="#CBCBCB"/>
</linearGradient>
<linearGradient id="paint5_linear_197_3" x1="119.701" y1="95.236" x2="112.706" y2="118.718" gradientUnits="userSpaceOnUse">
<stop offset="0.01"/>
<stop offset="0.13" stop-opacity="0.69"/>
<stop offset="0.25" stop-opacity="0.32"/>
<stop offset="1" stop-opacity="0"/>
</linearGradient>
<linearGradient id="paint6_linear_197_3" x1="116.848" y1="45.1538" x2="117.12" y2="48.3201" gradientUnits="userSpaceOnUse">
<stop stop-color="white"/>
<stop offset="1" stop-color="#CBCBCB"/>
</linearGradient>
<linearGradient id="paint7_linear_197_3" x1="120.418" y1="44.8291" x2="120.792" y2="47.1039" gradientUnits="userSpaceOnUse">
<stop stop-color="white"/>
<stop offset="1" stop-color="#CBCBCB"/>
</linearGradient>
<linearGradient id="paint8_linear_197_3" x1="118.633" y1="79.5715" x2="143.974" y2="88.4593" gradientUnits="userSpaceOnUse">
<stop stop-color="white"/>
<stop offset="1" stop-color="#CBCBCB"/>
</linearGradient>
<linearGradient id="paint9_linear_197_3" x1="148.37" y1="73.232" x2="117.091" y2="79.3965" gradientUnits="userSpaceOnUse">
<stop offset="0.01" stop-color="white"/>
<stop offset="1" stop-color="white" stop-opacity="0"/>
</linearGradient>
<linearGradient id="paint10_linear_197_3" x1="179.418" y1="6.85592" x2="181.257" y2="8.74327" gradientUnits="userSpaceOnUse">
<stop stop-color="white"/>
<stop offset="1" stop-color="#CBCBCB"/>
</linearGradient>
<linearGradient id="paint11_linear_197_3" x1="145.65" y1="48.1545" x2="156.171" y2="59.6035" gradientUnits="userSpaceOnUse">
<stop offset="0.01"/>
<stop offset="0.13" stop-opacity="0.69"/>
<stop offset="0.25" stop-opacity="0.32"/>
<stop offset="1" stop-opacity="0"/>
</linearGradient>
<linearGradient id="paint12_linear_197_3" x1="147.058" y1="45.3444" x2="147.058" y2="57.5923" gradientUnits="userSpaceOnUse">
<stop offset="0.01"/>
<stop offset="0.13" stop-opacity="0.69"/>
<stop offset="0.25" stop-opacity="0.32"/>
<stop offset="1" stop-opacity="0"/>
</linearGradient>
<clipPath id="clip0_197_3">
<rect width="101" height="82" fill="white" transform="translate(74 38)"/>
</clipPath>
</defs>
</svg>
